. 
  
http://www.torrentday.com/        :     The Hottest Private Tracker On The Net!!!


To Avoid Fakes, ALWAYS Check That The Torrent Was Added By: TvTeam.


               www . TorrentDay . Com 
(((((((((((((= Enjoy No RAR releases =))))))))))))))))))))

...................................NFO:....................................

.                                         
                                                                               
                                                                                
                                                              
                                                                           
                                                                           
                                                   
                                                                             
                                                                               
                                                  
                                                               
                                                         
                                                                                  
                                                                           
                                                                     
                                                                  
                                                                       
                                                                           
                                                                           
                                                                   
                                                               
                                                                 
                                           
                                                        
                                                               
                           _        _______          
                          ( (    /|(  ____ )|     /|
                          |    ( || (    )|| )   ( |
                          |    | || (____)|| | _ | |
                          | ( ) ||  _____)| |( )| |
                          | |    || (      | || || |
                          | )    || )      | () () |
                          |/    )_)|/       (_______)

 

                               _________ ______            ______  
             |     /||     /|__   __/(  __   |     /|(  __   
             (    / )| )   ( |   ) (   | (    )| )   ( || (    )
               (_) / | |   | |   | |   | |   ) || (___) || |   ) |
               ) _ (  ( (   ) )   | |   | |   | ||  ___  || |   | |
              / ( )    _/ /    | |   | |   ) || (   ) || |   ) |
             ( /    )     /  ___) (___| (__/  )| )   ( || (__/  )
             |/     |   _/   _______/(______/ |/     |(______/ 
                                                                   
                       ______   _______  _______  _______ 
                      / ___   / ___   )(  __   )(  ____ )
                      /   )  )/   )  || (  )  || (    )|
                          /  /     /   )| | /   || (____)|
                         /  /    _/   / | (/ /) ||  _____)
                        /  /    /   _/  |   / | || (      
                       /  /    (   (__/|  (__) || )      
                       _/     _______/(_______)|/       
                       
           
-==Our releases are True HD Xvid in 5.1 sound and work on computers, Xbox 360, PS3, WDHD TV and some upscaling dvd players.==-


Source: NOVA Becoming Human Complete Series 720 x264 DD5.1 AtZLIT

General
Complete name                    : Birth of Humanity.mp4
Format                           : MPEG-4
Format profile                   : Base Media
Codec ID                         : isom
File size                        : 1.24 GiB
Duration                         : 52mn 22s
Overall bit rate                 : 3 390 Kbps
Movie name                       : Birth of Humanity.mp4
Performer                        : Avidemux
Writing application              : Lavf52.61.0

Video
ID                               : 1
Format                           : AVC
Format/Info                      : Advanced Video Codec
Format profile                   : High@L3.1
Format settings, CABAC           : Yes
Format settings, ReFrames        : 4 frames
Codec ID                         : avc1
Codec ID/Info                    : Advanced Video Coding
Duration                         : 52mn 22s
Bit rate mode                    : Variable
Bit rate                         : 3 000 Kbps
Width                            : 1 280 pixels
Height                           : 720 pixels
Display aspect ratio             : 16:9
Frame rate mode                  : Constant
Frame rate                       : 29.970 fps
Resolution                       : 24 bits
Colorimetry                      : 4:2:0
Scan type                        : Progressive
Bits/(Pixel*Frame)               : 0.109
Stream size                      : 1.10 GiB (88%)
Writing library                  : x264 core 93 r1542 5b86182

Audio
ID                               : 2
Format                           : AAC
Format/Info                      : Advanced Audio Codec
Format version                   : Version 4
Format profile                   : LC
Format settings, SBR             : No
Codec ID                         : 40
Duration                         : 52mn 22s
Bit rate mode                    : Variable
Bit rate                         : 384 Kbps
Channel(s)                       : 6 channels
Channel positions                : Front: L C R, Rear: L R, LFE
Sampling rate                    : 48.0 KHz
Resolution                       : 16 bits
Stream size                      : 144 MiB (11%)



General
Complete name                    : First Steps.mp4
Format                           : MPEG-4
Format profile                   : Base Media
Codec ID                         : isom
File size                        : 1.24 GiB
Duration                         : 52mn 21s
Overall bit rate                 : 3 391 Kbps
Movie name                       : First Steps.mp4
Performer                        : Avidemux
Writing application              : Lavf52.61.0

Video
ID                               : 1
Format                           : AVC
Format/Info                      : Advanced Video Codec
Format profile                   : High@L3.1
Format settings, CABAC           : Yes
Format settings, ReFrames        : 4 frames
Codec ID                         : avc1
Codec ID/Info                    : Advanced Video Coding
Duration                         : 52mn 21s
Bit rate mode                    : Variable
Bit rate                         : 3 000 Kbps
Width                            : 1 280 pixels
Height                           : 720 pixels
Display aspect ratio             : 16:9
Frame rate mode                  : Constant
Frame rate                       : 29.970 fps
Resolution                       : 24 bits
Colorimetry                      : 4:2:0
Scan type                        : Progressive
Bits/(Pixel*Frame)               : 0.109
Stream size                      : 1.10 GiB (88%)
Writing library                  : x264 core 93 r1542 5b86182

Audio
ID                               : 2
Format                           : AAC
Format/Info                      : Advanced Audio Codec
Format version                   : Version 4
Format profile                   : LC
Format settings, SBR             : No
Codec ID                         : 40
Duration                         : 52mn 21s
Bit rate mode                    : Variable
Bit rate                         : 384 Kbps
Channel(s)                       : 6 channels
Channel positions                : Front: L C R, Rear: L R, LFE
Sampling rate                    : 48.0 KHz
Resolution                       : 16 bits
Stream size                      : 144 MiB (11%)



General
Complete name                    : Last Human Standing.mp4
Format                           : MPEG-4
Format profile                   : Base Media
Codec ID                         : isom
File size                        : 1.23 GiB
Duration                         : 51mn 52s
Overall bit rate                 : 3 391 Kbps
Movie name                       : Last Human Standing.mp4
Performer                        : Avidemux
Writing application              : Lavf52.61.0

Video
ID                               : 1
Format                           : AVC
Format/Info                      : Advanced Video Codec
Format profile                   : High@L3.1
Format settings, CABAC           : Yes
Format settings, ReFrames        : 4 frames
Codec ID                         : avc1
Codec ID/Info                    : Advanced Video Coding
Duration                         : 51mn 52s
Bit rate mode                    : Variable
Bit rate                         : 3 000 Kbps
Width                            : 1 280 pixels
Height                           : 720 pixels
Display aspect ratio             : 16:9
Frame rate mode                  : Constant
Frame rate                       : 29.970 fps
Resolution                       : 24 bits
Colorimetry                      : 4:2:0
Scan type                        : Progressive
Bits/(Pixel*Frame)               : 0.109
Stream size                      : 1.09 GiB (88%)
Writing library                  : x264 core 93 r1542 5b86182

Audio
ID                               : 2
Format                           : AAC
Format/Info                      : Advanced Audio Codec
Format version                   : Version 4
Format profile                   : LC
Format settings, SBR             : No
Codec ID                         : 40
Duration                         : 51mn 52s
Bit rate mode                    : Variable
Bit rate                         : 384 Kbps
Channel(s)                       : 6 channels
Channel positions                : Front: L C R, Rear: L R, LFE
Sampling rate                    : 48.0 KHz
Resolution                       : 16 bits
Stream size                      : 142 MiB (11%) 
http://www.pbs.org/wgbh/nova/evolution/becoming-human-part-1.html